<svg xmlns="http://www.w3.org/2000/svg" width="37" height="34" viewBox="0 0 37 34">
  <g fill="none" fill-rule="evenodd" stroke="#323232" stroke-linecap="round" stroke-linejoin="round" stroke-width="2.5" transform="translate(2 2)">
    <path d="M29.7,30 L3.3,30 C1.47675,30 0,28.5066667 0,26.6666667 L0,3.33333333 C0,1.49166667 1.47675,0 3.3,0 L29.7,0 C31.5216,0 33,1.49166667 33,3.33333333 L33,26.6666667 C33,28.5066667 31.5216,30 29.7,30 Z"/>
    <line x2="33" y1="8" y2="8"/>
    <path d="M5 3.989C4.994 3.989 4.99 3.995 4.99 3.999 4.99 4.005 4.994 4.011 5 4.011 5.006 4.011 5.01 4.005 5.01 3.999 5.01 3.995 5.006 3.989 5 3.989M9 3.989C8.994 3.989 8.99 3.995 8.99 3.999 8.99 4.005 8.994 4.011 9 4.011 9.006 4.011 9.01 4.005 9.01 3.999 9.01 3.995 9.006 3.989 9 3.989M13 3.989C12.994 3.989 12.99 3.995 12.99 3.999 12.99 4.005 12.994 4.011 13 4.011 13.006 4.011 13.01 4.005 13.01 3.999 13.01 3.995 13.006 3.989 13 3.989M13.4 18L8.6 18C7.7168 18 7 17.2533333 7 16.3333333L7 14.6666667C7 13.745 7.7168 13 8.6 13L13.4 13C14.2832 13 15 13.745 15 14.6666667L15 16.3333333C15 17.2533333 14.2832 18 13.4 18z"/>
    <line x1="20" x2="27" y1="13" y2="13"/>
    <line x1="20" x2="25" y1="18" y2="18"/>
    <path d="M26,30 L26,24.75 C26,23.78225 25.2533333,23 24.3333333,23 L7.66666667,23 C6.74666667,23 6,23.78225 6,24.75 L6,30"/>
  </g>
</svg>
