<svg xmlns="http://www.w3.org/2000/svg" width="38" height="30" viewBox="0 0 38 30">
  <g fill="none" fill-rule="evenodd" stroke="#323232" stroke-linecap="round" stroke-linejoin="round" stroke-width="2.5" transform="translate(2 1)">
    <line x1="1" x2="1" y1="11" y2="11"/>
    <line x1="2" y1="6" y2="6"/>
    <line x1="4" x2="1" y1="1" y2="1"/>
    <path d="M26.4628046,21 L8.96725466,21 C6.31210793,21 4.40542508,18.4166667 5.17041135,15.85 L8.73759356,3.85 C9.2415262,2.15833333 10.7863689,1 12.5360891,1 L30.0316391,1 C32.6884381,1 34.5934687,3.58333333 33.8301346,6.15 L30.2613002,18.15 C29.7573675,19.8416667 28.2141771,21 26.4628046,21 Z"/>
    <line x1="5" x2="17" y1="19" y2="11"/>
    <line x1="21" x2="29" y1="11" y2="19"/>
    <line x1="25" x2="2" y1="27" y2="27"/>
    <path d="M9,2 L16.9437668,11.4137072 C17.4796361,12.0469991 18.3925987,12.1864241 19.0872442,11.7379123 L33,2.75423885"/>
  </g>
</svg>
