<svg id="Layer_3" data-name="Layer 3" xmlns="http://www.w3.org/2000/svg" viewBox="0 0 100 27"><defs><style>.cls-1{fill:#fc4c02;fill-rule:evenodd;}.cls-2{fill:#1299dd;}</style></defs><title>new_logo_sakhcom</title><path class="cls-1" d="M76.54,6.46a7,7,0,1,0,7,7,7,7,0,0,0-7-7Zm0,11.18a4.19,4.19,0,1,1,4.19-4.19,4.19,4.19,0,0,1-4.19,4.19Z"/><path class="cls-1" d="M74.67.13c-.28-.28-1.23,0-1.23,0s-1,.26-1.05.64c-.17.64,1.58,4.14,1.9,4l.78-.21C75.38,4.5,75.14.6,74.67.13Z"/><path class="cls-1" d="M69.67,2.38c-.37-.14-1.14.47-1.14.47s-.76.62-.7,1c.11.66,3.12,3.14,3.37,2.93l.63-.51C72.09,6.09,70.29,2.62,69.67,2.38Z"/><path class="cls-1" d="M78.38.13c.28-.28,1.23,0,1.23,0s1,.26,1.05.64c.17.64-1.58,4.14-1.9,4L78,4.59C77.66,4.5,77.91.6,78.38.13Z"/><path class="cls-1" d="M83.37,2.38c.37-.14,1.14.47,1.14.47s.76.62.7,1c-.11.66-3.12,3.14-3.38,2.93l-.63-.51C81,6.09,82.75,2.62,83.37,2.38Z"/><path class="cls-1" d="M74.67,26.87c-.28.28-1.23,0-1.23,0s-1-.26-1.05-.64c-.17-.64,1.58-4.14,1.9-4l.78.21C75.38,22.5,75.14,26.4,74.67,26.87Z"/><path class="cls-1" d="M69.67,24.62c-.37.14-1.14-.47-1.14-.47s-.76-.62-.7-1c.11-.66,3.12-3.14,3.37-2.93l.63.51C72.09,20.91,70.29,24.38,69.67,24.62Z"/><path class="cls-1" d="M78.38,26.87c.28.28,1.23,0,1.23,0s1-.26,1.05-.64c.17-.64-1.58-4.14-1.9-4l-.78.21C77.66,22.5,77.91,26.4,78.38,26.87Z"/><path class="cls-1" d="M83.37,24.62c.37.14,1.14-.47,1.14-.47s.76-.62.7-1c-.11-.66-3.12-3.14-3.38-2.93l-.63.51C81,20.91,82.75,24.38,83.37,24.62Z"/><path class="cls-2" d="M3.42,15.65c.07,1.49,1,2,2.39,2,1,0,2-.35,2-1.29C7.83,15.21,6,15,4.2,14.48S.5,13.16.5,10.83C.5,8.07,3.28,7,5.65,7s5.05,1.22,5.07,4.08H7.43c.05-1.15-1-1.52-2-1.52-.71,0-1.59.25-1.59,1.08s1.83,1.15,3.67,1.67,3.67,1.36,3.67,3.65c0,3.21-2.73,4.24-5.51,4.24S.14,18.9.13,15.65Z"/><path class="cls-2" d="M16.82,7.25h3.35L24.9,19.91H21.46l-.78-2.27H16.27l-.8,2.27H12.09ZM17,15.19H19.9l-1.4-4.43h0Z"/><path class="cls-2" d="M26.45,7.25h3.3v4.86l4.16-4.86H38l-4.68,5,5.26,7.67H34.5l-3.4-5.32L29.75,16v3.9h-3.3Z"/><path class="cls-2" d="M40.08,7.25h3.3v4.61h4.34V7.25H51V19.91h-3.3V14.7H43.38v5.21h-3.3Z"/><path class="cls-2" d="M53.87,17.24h0a1.34,1.34,0,0,1,1.34,1.34h0a1.34,1.34,0,0,1-1.34,1.34h0a1.34,1.34,0,0,1-1.34-1.34h0A1.34,1.34,0,0,1,53.87,17.24Z"/><path class="cls-2" d="M64.23,11.77a2.29,2.29,0,0,0-2.55-1.95c-2.13,0-2.94,1.88-2.94,3.76s.82,3.76,2.94,3.76A2.35,2.35,0,0,0,64.23,15h3.3c-.18,3.26-2.57,5.17-5.78,5.17-3.83,0-6.31-2.92-6.31-6.59S57.93,7,61.75,7c2.73,0,5.69,1.74,5.78,4.78Z"/><path class="cls-2" d="M85.77,7.25h4.86l2.18,8.44h0L95,7.25h4.86V19.91h-3.1V10.3h0l-2.66,9.6H91.56l-2.66-9.6h0v9.6h-3.1Z"/></svg>