<svg xmlns="http://www.w3.org/2000/svg" width="350" height="50" viewBox="0 0 350 50">
  <g fill="none" fill-rule="evenodd">
    <path fill="#F50" d="M12.7229125,40.8363797 C12.9511513,40.8956881 14.0539013,41.1799707 14.2821401,41.2389477 C14.9225247,41.4049449 14.4296814,48.8476495 13.4893653,49.7492032 C12.9296781,50.2833099 11.0275729,49.7982402 11.0275729,49.7982402 C11.0275729,49.7982402 9.12962379,49.30058 8.92770694,48.5699935 C8.59002438,47.3384335 12.0811425,40.6703825 12.7229125,40.8363797 Z M21.2770875,40.8363797 C21.9188575,40.6703825 25.4099756,47.3384335 25.0722931,48.5699935 C24.8703762,49.30058 22.9724271,49.7982402 22.9724271,49.7982402 C22.9724271,49.7982402 21.0703219,50.2833099 20.5106347,49.7492032 C19.5703186,48.8476495 19.0774753,41.4049449 19.7178599,41.2389477 C19.9460987,41.1799707 21.0488487,40.8956881 21.2770875,40.8363797 Z M6.7816583,36.689987 C6.96724004,36.8300855 7.85998218,37.5020392 8.04451936,37.6408405 C8.56400894,38.0319487 4.77676891,44.7713691 3.52783518,45.2221489 C2.78585644,45.4887252 1.41650086,44.0730466 1.41650086,44.0730466 C1.41650086,44.0730466 -0.116202301,42.9081538 0.00705460905,42.1775013 C0.219098277,40.9474238 6.26216873,36.2985545 6.7816583,36.689987 Z M27.2183417,36.689987 C27.7378313,36.2985545 33.7809017,40.9474238 33.9929454,42.1775013 C34.1162023,42.9081538 32.5834991,44.0730466 32.5834991,44.0730466 C32.5834991,44.0730466 31.2141436,45.4887252 30.4721648,45.2221489 C29.2232311,44.7713691 25.4359911,38.0319487 25.9554806,37.6408405 C26.1400178,37.5020392 27.03276,36.8300855 27.2183417,36.689987 Z M17,11.6666667 C24.1534025,11.6666667 29.952381,17.6362033 29.952381,25 C29.952381,32.3637967 24.1534025,38.3333333 17,38.3333333 C9.84659753,38.3333333 4.04761905,32.3637967 4.04761905,25 C4.04761905,17.6362033 9.84659753,11.6666667 17,11.6666667 Z M17,16.6666667 C12.5291235,16.6666667 8.9047619,20.3976271 8.9047619,25 C8.9047619,29.6023729 12.5291235,33.3333333 17,33.3333333 C21.4708765,33.3333333 25.0952381,29.6023729 25.0952381,25 C25.0952381,20.3976271 21.4708765,16.6666667 17,16.6666667 Z M1.41650086,5.92695342 C1.41650086,5.92695342 2.78585644,4.51127485 3.52783518,4.7778511 C4.77676891,5.2286309 8.56400894,11.9680513 8.04451936,12.3591595 C7.85998218,12.4979608 6.96724004,13.1699145 6.7816583,13.310013 C6.26216873,13.7014455 0.219098277,9.05257621 0.00705460905,7.82249868 C-0.116202301,7.09184624 1.41650086,5.92695342 1.41650086,5.92695342 Z M32.5834991,5.92695342 C32.5834991,5.92695342 34.1162023,7.09184624 33.9929454,7.82249868 C33.7809017,9.05257621 27.7378313,13.7014455 27.2183417,13.310013 C27.03276,13.1699145 26.1400178,12.4979608 25.9554806,12.3591595 C25.4359911,11.9680513 29.2232311,5.2286309 30.4721648,4.7778511 C31.2141436,4.51127485 32.5834991,5.92695342 32.5834991,5.92695342 Z M11.0275729,0.201759754 C11.0275729,0.201759754 12.9296781,-0.283309894 13.4893653,0.250796849 C14.4296814,1.15235048 14.9225247,8.59505505 14.2821401,8.76105225 C14.0539013,8.8200293 12.9511513,9.10431192 12.7229125,9.1636203 C12.0811425,9.32961749 8.59002438,2.66156649 8.92770694,1.43000646 C9.12962379,0.699420007 11.0275729,0.201759754 11.0275729,0.201759754 Z M22.9724271,0.201759754 C22.9724271,0.201759754 24.8703762,0.699420007 25.0722931,1.43000646 C25.4099756,2.66156649 21.9188575,9.32961749 21.2770875,9.1636203 C21.0488487,9.10431192 19.9460987,8.8200293 19.7178599,8.76105225 C19.0774753,8.59505505 19.5703186,1.15235048 20.5106347,0.250796849 C21.0703219,-0.283309894 22.9724271,0.201759754 22.9724271,0.201759754 Z" transform="translate(204)"/>
    <path fill="#1299DD" fill-rule="nonzero" d="M10.6333713,36 C12.7033343,36 14.6598746,35.4751381 16.5029923,34.4254144 C17.5521516,33.8176796 18.0625534,32.9337017 18.0625534,31.7734807 L18.0625534,26.718232 C18.0625534,25.5856354 17.0984611,24.6464088 15.9358792,24.6464088 L11.7108863,24.6464088 C10.5483044,24.6464088 9.58421203,25.5856354 9.58421203,26.718232 C9.58421203,27.8508287 10.5483044,28.7900552 11.7108863,28.7900552 L13.8092049,28.7900552 L13.8092049,30.8895028 C13.3271587,31.3314917 11.8243089,31.8563536 10.6900826,31.8563536 C7.14562553,31.8563536 4.82046167,29.5635359 4.82046167,26 C4.82046167,22.160221 7.17398119,20.1436464 10.6050157,20.1436464 C11.484041,20.1436464 12.2496438,20.2541436 12.9585352,20.5027624 C13.38387,20.640884 13.7524936,20.7237569 14.0644058,20.7237569 C14.8300085,20.7237569 15.3971217,20.3922652 15.7941009,19.7292818 C15.9925905,19.3701657 16.0776575,19.038674 16.0776575,18.679558 C16.0776575,17.8232044 15.5105443,17.160221 14.4046737,16.6906077 C13.3555144,16.2209945 11.9093759,16 10.0662582,16 C7.03220291,16 4.59361641,16.9392265 2.75049872,18.8453039 C0.90738102,20.7513812 0,23.1546961 0,26 C0,29.0662983 0.935736677,31.4972376 2.80721003,33.2928177 C4.67868339,35.0883978 7.28740382,36 10.6333713,36 Z M31.1628669,36 C34.1969222,36 36.7205757,35.0607735 38.7338273,33.1823204 C40.7187233,31.3038674 41.7111713,28.9005525 41.7111713,26 C41.7111713,22.9889503 40.7187233,20.558011 38.762183,18.7348066 C36.777287,16.9116022 34.2536335,16 31.1628669,16 C28.0437447,16 25.5200912,16.9392265 23.5635509,18.8453039 C21.6070105,20.7513812 20.6145626,23.1546961 20.6145626,26 C20.6145626,29.0110497 21.6070105,31.441989 23.5919065,33.2651934 C25.5484469,35.0883978 28.0721003,36 31.1628669,36 Z M31.1628669,31.8563536 C29.5749501,31.8563536 28.2138786,31.3038674 27.108008,30.1712707 C26.0021374,29.038674 25.4350242,27.6574586 25.4350242,26 C25.4350242,24.2596685 25.9737817,22.8232044 27.0512967,21.7458564 C28.1288116,20.6685083 29.4898832,20.1436464 31.1628669,20.1436464 C32.7791394,20.1436464 34.1402109,20.6961326 35.2460815,21.7734807 C36.3519521,22.8508287 36.8907096,24.2596685 36.8907096,26 C36.8907096,27.7127072 36.3803078,29.121547 35.3878598,30.198895 C34.3954118,31.3038674 32.977629,31.8563536 31.1628669,31.8563536 Z M46.8719008,35.8342541 C48.431462,35.8342541 49.5373326,34.5359116 49.5373326,33.0165746 C49.5373326,31.6906077 48.3747506,30.4198895 46.8719008,30.4198895 C45.1422058,30.4198895 43.9796238,31.6906077 43.9796238,33.0165746 C43.9796238,34.5635359 45.1422058,35.8342541 46.8719008,35.8342541 Z M58.2708749,36 C60.2274152,36 61.8436877,35.4751381 63.1480479,34.3977901 C64.4240524,33.320442 65.0762325,31.9668508 65.0762325,30.3093923 C65.0762325,24.0110497 56.7963807,24.7845304 56.7963807,21.5801105 C56.7963807,20.6961326 57.5336278,20.1436464 58.7812767,20.1436464 C59.830436,20.1436464 61.1631519,20.558011 61.4750641,20.558011 C62.6092904,20.558011 63.4316044,19.6740331 63.4316044,18.5690608 C63.4316044,16.8839779 61.3616415,16 58.5260758,16 C56.5411798,16 54.953263,16.5524862 53.7623254,17.6298343 C52.5713879,18.7071823 51.9759191,20.0331492 51.9759191,21.5801105 C51.9759191,23.9005525 53.2802793,25.640884 54.8965517,26.5524862 C57.2784269,27.9060773 60.2557709,28.7900552 60.2557709,30.3646409 C60.2557709,31.2762431 59.5468795,31.8563536 58.3842975,31.8563536 C57.7321174,31.8563536 56.9665147,31.6629834 56.0874893,31.2762431 C55.1801083,30.8895028 54.5279282,30.6961326 54.130949,30.6961326 C53.0250784,30.6961326 52.2878313,31.5524862 52.2878313,32.6574586 C52.2878313,33.7624309 52.9116557,34.5911602 54.1593046,35.1436464 C55.4069535,35.7237569 56.7680251,36 58.2708749,36 Z M83.5924765,35.9447514 C84.8401254,35.9447514 85.8042177,34.9502762 85.8042177,33.8176796 C85.8042177,33.5414365 85.7475064,33.2651934 85.6340838,32.9889503 L79.254061,18.0718232 C78.6585922,16.718232 77.7512112,16.0552486 76.5035623,16.0552486 C75.1992021,16.0552486 74.2634654,16.7458564 73.6963522,18.0994475 L67.2879738,33.2375691 C67.2029068,33.4309392 67.1461955,33.7071823 67.1461955,34.0110497 C67.1461955,35.0331492 67.9968652,35.9447514 69.1310915,35.9447514 C70.1802508,35.9447514 70.8891422,35.4751381 71.2577657,34.5359116 L72.4487033,31.6077348 L80.3032203,31.6077348 L81.4658022,34.5359116 C81.8344258,35.4751381 82.5433172,35.9447514 83.5924765,35.9447514 Z M78.6018809,27.4640884 L74.1500427,27.4640884 L76.3901396,21.9944751 L78.6018809,27.4640884 Z M101.995298,35.9447514 C103.271302,35.9447514 104.121972,34.9502762 104.121972,33.7624309 C104.121972,33.2375691 103.980194,32.7955801 103.668282,32.4364641 L98.1389285,25.2541436 L102.987746,19.3977901 C103.356369,18.9281768 103.554859,18.4309392 103.554859,17.8508287 C103.554859,16.8287293 102.845968,16.0552486 101.569963,16.0552486 C100.747649,16.0552486 100.010402,16.4696133 99.3582217,17.2983425 L93.6587347,24.7569061 L93.6587347,18.1270718 C93.6587347,16.9944751 92.6662867,16.0552486 91.3902821,16.0552486 C90.1142776,16.0552486 89.1218296,16.9944751 89.1218296,18.1270718 L89.1218296,33.8729282 C89.1218296,35.0055249 90.1142776,35.9447514 91.3902821,35.9447514 C92.6662867,35.9447514 93.6587347,35.0055249 93.6587347,33.8729282 L93.6587347,26.4696133 L99.414933,34.2872928 C100.322314,35.5027624 101.00285,35.9447514 101.995298,35.9447514 Z M121.617412,35.9447514 C122.893417,35.9447514 123.885865,35.0055249 123.885865,33.8729282 L123.885865,18.1270718 C123.885865,16.9944751 122.893417,16.0552486 121.617412,16.0552486 C120.341408,16.0552486 119.34896,16.9944751 119.34896,18.1270718 L119.34896,23.7348066 L112.118267,23.7348066 L112.118267,18.1270718 C112.118267,16.9944751 111.125819,16.0552486 109.849815,16.0552486 C108.57381,16.0552486 107.581362,16.9944751 107.581362,18.1270718 L107.581362,33.8729282 C107.581362,35.0055249 108.57381,35.9447514 109.849815,35.9447514 C111.125819,35.9447514 112.118267,35.0055249 112.118267,33.8729282 L112.118267,27.878453 L119.34896,27.878453 L119.34896,33.8729282 C119.34896,35.0055249 120.341408,35.9447514 121.617412,35.9447514 Z M130.464377,35.8342541 C132.023938,35.8342541 133.129809,34.5359116 133.129809,33.0165746 C133.129809,31.6906077 131.967227,30.4198895 130.464377,30.4198895 C128.734682,30.4198895 127.5721,31.6906077 127.5721,33.0165746 C127.5721,34.5635359 128.734682,35.8342541 130.464377,35.8342541 Z M145.804788,36 C147.562838,36 149.065688,35.6685083 150.341693,35.0331492 C151.277429,34.5635359 151.73112,33.9281768 151.73112,33.1270718 C151.73112,32.8232044 151.646053,32.4917127 151.475919,32.160221 C151.135651,31.5248619 150.596894,31.1933702 149.831291,31.1933702 C149.405956,31.1933702 148.952266,31.2762431 148.498575,31.4696133 C147.789684,31.718232 147.052437,31.8563536 146.230123,31.8563536 C144.443716,31.8563536 142.997578,31.3038674 141.891707,30.198895 C140.785836,29.121547 140.218723,27.7127072 140.218723,26 C140.218723,24.1491713 140.757481,22.7127072 141.80664,21.6906077 C142.855799,20.6685083 144.16016,20.1436464 145.776432,20.1436464 C146.655457,20.1436464 147.42106,20.2541436 148.129952,20.5027624 C148.555286,20.640884 148.92391,20.7237569 149.235822,20.7237569 C150.001425,20.7237569 150.568538,20.3922652 150.965517,19.7292818 C151.164007,19.3701657 151.249074,19.038674 151.249074,18.679558 C151.249074,17.9337017 150.738672,17.2983425 149.746224,16.7734807 C148.72542,16.2486188 147.392704,16 145.776432,16 C142.487176,16 139.935167,16.9392265 138.120405,18.8176796 C136.305643,20.6961326 135.398262,23.0994475 135.398262,26 C135.398262,29.0110497 136.362354,31.4143646 138.290539,33.2375691 C140.218723,35.0883978 142.714021,36 145.804788,36 Z M164.009119,36 C167.043175,36 169.566828,35.0607735 171.58008,33.1823204 C173.564976,31.3038674 174.557424,28.9005525 174.557424,26 C174.557424,22.9889503 173.564976,20.558011 171.608435,18.7348066 C169.623539,16.9116022 167.099886,16 164.009119,16 C160.889997,16 158.366344,16.9392265 156.409803,18.8453039 C154.453263,20.7513812 153.460815,23.1546961 153.460815,26 C153.460815,29.0110497 154.453263,31.441989 156.438159,33.2651934 C158.394699,35.0883978 160.918353,36 164.009119,36 Z M164.009119,31.8563536 C162.421203,31.8563536 161.060131,31.3038674 159.95426,30.1712707 C158.84839,29.038674 158.281277,27.6574586 158.281277,26 C158.281277,24.2596685 158.820034,22.8232044 159.897549,21.7458564 C160.975064,20.6685083 162.336136,20.1436464 164.009119,20.1436464 C165.625392,20.1436464 166.986463,20.6961326 168.092334,21.7734807 C169.198205,22.8508287 169.736962,24.2596685 169.736962,26 C169.736962,27.7127072 169.22656,29.121547 168.234112,30.198895 C167.241664,31.3038674 165.823881,31.8563536 164.009119,31.8563536 Z M196.731547,35.9447514 C198.007552,35.9447514 199,35.0055249 199,33.8729282 L199,18.4585635 C199,17.0220994 198.035908,16.0552486 196.476347,16.0552486 C195.9943,16.0552486 195.54061,16.1657459 195.115275,16.4143646 C194.292961,16.8839779 194.03776,17.2430939 193.215446,18.4309392 L188.933742,24.480663 L184.396837,18.4033149 C183.687945,17.4917127 183.120832,16.8563536 182.695497,16.5248619 C182.270162,16.2209945 181.674694,16.0552486 180.909091,16.0552486 C179.292818,16.0552486 178.243659,17.1049724 178.243659,18.5414365 L178.243659,33.8729282 C178.243659,35.0055249 179.236107,35.9447514 180.512112,35.9447514 C181.788116,35.9447514 182.780564,35.0055249 182.780564,33.8729282 L182.780564,23.4309392 L187.005557,29.1491713 C187.430892,29.7292818 187.969649,30.0331492 188.62183,30.0331492 C189.245654,30.0331492 189.784412,29.7292818 190.209746,29.1491713 L194.463095,23.3480663 L194.463095,33.8729282 C194.463095,35.0055249 195.455543,35.9447514 196.731547,35.9447514 Z"/>
    <text fill="#009CE3" font-family="CirceRounded-AltBold, Circe Rounded Alt " font-size="24" font-weight="bold">
      <tspan x="243" y="34">PARTNER</tspan>
    </text>
  </g>
</svg>
