<svg xmlns="http://www.w3.org/2000/svg" width="286" height="41" viewBox="0 0 286 41">
  <g fill="none" fill-rule="evenodd">
    <path fill="#F50" d="M10.424235,33.4858314 C10.6112374,33.5344642 11.5147511,33.767576 11.7017534,33.8159372 C12.2264383,33.9520549 11.8226381,40.0550726 11.0522111,40.7943466 C10.6419141,41.1862123 9.35110348,40.9090352 9.08390011,40.8463402 L9.0351963,40.834557 C9.0351963,40.834557 7.48015394,40.4264756 7.31471787,39.8273947 C7.03804519,38.8175155 9.89841507,33.3497137 10.424235,33.4858314 Z M17.4329078,33.4858314 C17.9587278,33.3497137 20.8190977,38.8175155 20.542425,39.8273947 C20.3769889,40.4264756 18.8219466,40.834557 18.8219466,40.834557 L18.7732427,40.8463402 C18.5060394,40.9090352 17.2152288,41.1862123 16.8049318,40.7943466 C16.0345048,40.0550726 15.6307045,33.9520549 16.1553894,33.8159372 C16.3423918,33.767576 17.2459055,33.5344642 17.4329078,33.4858314 Z M5.55640071,30.0857893 C5.70845297,30.2006701 6.43990137,30.7516722 6.5910978,30.8654892 C7.01673001,31.1861979 3.91373923,36.7125227 2.8904532,37.0821621 C2.28252943,37.3007546 1.16057844,36.1398982 1.16057844,36.1398982 C1.16057844,36.1398982 -0.095207768,35.1846861 0.00578003682,34.5855511 C0.179513294,33.5768875 5.13076849,29.7648147 5.55640071,30.0857893 Z M22.3007421,30.0857893 C22.7263744,29.7648147 27.6776296,33.5768875 27.8513628,34.5855511 C27.9523506,35.1846861 26.6965644,36.1398982 26.6965644,36.1398982 C26.6965644,36.1398982 25.5746134,37.3007546 24.9666897,37.0821621 C23.9434036,36.7125227 20.8404128,31.1861979 21.2660451,30.8654892 C21.4172415,30.7516722 22.1486899,30.2006701 22.3007421,30.0857893 Z M13.9285714,9.56666667 C19.7895524,9.56666667 24.5408163,14.4616867 24.5408163,20.5 C24.5408163,26.5383133 19.7895524,31.4333333 13.9285714,31.4333333 C8.06759041,31.4333333 3.31632653,26.5383133 3.31632653,20.5 C3.31632653,14.4616867 8.06759041,9.56666667 13.9285714,9.56666667 Z M13.9285714,13.6666667 C10.2654583,13.6666667 7.29591837,16.7260542 7.29591837,20.5 C7.29591837,24.2739458 10.2654583,27.3333333 13.9285714,27.3333333 C17.5916846,27.3333333 20.5612245,24.2739458 20.5612245,20.5 C20.5612245,16.7260542 17.5916846,13.6666667 13.9285714,13.6666667 Z M1.16057844,4.8601018 C1.16057844,4.8601018 2.28252943,3.69924538 2.8904532,3.9178379 C3.91373923,4.28747734 7.01673001,9.81380206 6.5910978,10.1345108 C6.43990137,10.2483278 5.70845297,10.7993299 5.55640071,10.9142107 C5.13076849,11.2351853 0.179513294,7.42311249 0.00578003682,6.41444891 C-0.095207768,5.81531392 1.16057844,4.8601018 1.16057844,4.8601018 Z M26.6965644,4.8601018 C26.6965644,4.8601018 27.9523506,5.81531392 27.8513628,6.41444891 C27.6776296,7.42311249 22.7263744,11.2351853 22.3007421,10.9142107 C22.1486899,10.7993299 21.4172415,10.2483278 21.2660451,10.1345108 C20.8404128,9.81380206 23.9434036,4.28747734 24.9666897,3.9178379 C25.5746134,3.69924538 26.6965644,4.8601018 26.6965644,4.8601018 Z M9.08390011,0.153659828 C9.35110348,0.0909647658 10.6419141,-0.186212268 11.0522111,0.205653417 C11.8226381,0.944927392 12.2264383,7.04794515 11.7017534,7.18406285 C11.5147511,7.23242402 10.6112374,7.46553577 10.424235,7.51416864 C9.89841507,7.65028634 7.03804519,2.18248452 7.31471787,1.1726053 C7.48015394,0.573524406 9.0351963,0.165442998 9.0351963,0.165442998 Z M18.7732427,0.153659828 L18.8219466,0.165442998 C18.8219466,0.165442998 20.3769889,0.573524406 20.542425,1.1726053 C20.8190977,2.18248452 17.9587278,7.65028634 17.4329078,7.51416864 C17.2459055,7.46553577 16.3423918,7.23242402 16.1553894,7.18406285 C15.6307045,7.04794515 16.0345048,0.944927392 16.8049318,0.205653417 C17.2152288,-0.186212268 18.5060394,0.0909647658 18.7732427,0.153659828 Z" transform="translate(167.143)"/>
    <path fill="#1299DD" fill-rule="nonzero" d="M8.71221601,29.52 C10.4081941,29.52 12.0112418,29.0896133 13.5213592,28.2288398 C14.3809646,27.7304972 14.7991509,27.0056354 14.7991509,26.0542541 L14.7991509,21.9089503 C14.7991509,20.980221 14.0092433,20.2100552 13.0567077,20.2100552 L9.5950539,20.2100552 C8.64251828,20.2100552 7.85261069,20.980221 7.85261069,21.9089503 C7.85261069,22.8376796 8.64251828,23.6078453 9.5950539,23.6078453 L11.3142645,23.6078453 L11.3142645,25.3293923 C10.9193107,25.6918232 9.6879842,26.1222099 8.75868116,26.1222099 C5.85460916,26.1222099 3.94953792,24.2420994 3.94953792,21.32 C3.94953792,18.1713812 5.87784173,16.5177901 8.68898343,16.5177901 C9.40919329,16.5177901 10.0364728,16.6083978 10.6172872,16.8122652 C10.9657759,16.9255249 11.2677994,16.9934807 11.5233577,16.9934807 C12.1506373,16.9934807 12.6152888,16.7216575 12.9405448,16.178011 C13.1031729,15.8835359 13.1728706,15.6117127 13.1728706,15.3172376 C13.1728706,14.6150276 12.7082191,14.0713812 11.8021486,13.6862983 C10.9425433,13.3012155 9.75768193,13.12 8.24756449,13.12 C5.76167885,13.12 3.76367731,13.8901657 2.25355987,15.4531492 C0.743442433,17.0161326 0,18.9868508 0,21.32 C0,23.8343646 0.766675009,25.8277348 2.30002503,27.3001105 C3.83337504,28.7724862 5.97077204,29.52 8.71221601,29.52 Z M25.532601,29.52 C28.0184867,29.52 30.0861859,28.7498343 31.7356988,27.2095028 C33.3619792,25.6691713 34.1751193,23.698453 34.1751193,21.32 C34.1751193,18.8509392 33.3619792,16.8575691 31.7589314,15.3625414 C30.1326511,13.8675138 28.0649518,13.12 25.532601,13.12 C22.9770177,13.12 20.9093184,13.8901657 19.3062707,15.4531492 C17.7032229,17.0161326 16.8900828,18.9868508 16.8900828,21.32 C16.8900828,23.7890608 17.7032229,25.7824309 19.3295032,27.2774586 C20.932551,28.7724862 23.0002503,29.52 25.532601,29.52 Z M25.532601,26.1222099 C24.2315768,26.1222099 23.1164131,25.6691713 22.2103427,24.740442 C21.3042722,23.8117127 20.8396207,22.679116 20.8396207,21.32 C20.8396207,19.8929282 21.2810396,18.7150276 22.1638775,17.8316022 C23.0467154,16.9481768 24.1618791,16.5177901 25.532601,16.5177901 C26.8568579,16.5177901 27.9720215,16.9708287 28.878092,17.8542541 C29.7841625,18.7376796 30.2255814,19.8929282 30.2255814,21.32 C30.2255814,22.7244199 29.807395,23.8796685 28.9942549,24.7630939 C28.1811147,25.6691713 27.0194859,26.1222099 25.532601,26.1222099 Z M38.4034482,29.3840884 C39.6812398,29.3840884 40.5873103,28.3194475 40.5873103,27.0735912 C40.5873103,25.9862983 39.6347747,24.9443094 38.4034482,24.9443094 C36.986261,24.9443094 36.0337254,25.9862983 36.0337254,27.0735912 C36.0337254,28.3420994 36.986261,29.3840884 38.4034482,29.3840884 Z M47.7429437,29.52 C49.3459915,29.52 50.6702483,29.0896133 51.7389468,28.2061878 C52.7844127,27.3227624 53.318762,26.2128177 53.318762,24.8537017 C53.318762,19.6890608 46.5348498,20.3233149 46.5348498,17.6956906 C46.5348498,16.9708287 47.1388967,16.5177901 48.1611301,16.5177901 C49.0207354,16.5177901 50.1126665,16.8575691 50.3682248,16.8575691 C51.2975278,16.8575691 51.9712726,16.1327072 51.9712726,15.2266298 C51.9712726,13.8448619 50.2752945,13.12 47.9520369,13.12 C46.3257566,13.12 45.0247323,13.5730387 44.0489641,14.4564641 C43.0731959,15.3398895 42.5853118,16.4271823 42.5853118,17.6956906 C42.5853118,19.598453 43.6540103,21.0255249 44.9782672,21.7730387 C46.9298036,22.8829834 49.369224,23.6078453 49.369224,24.8990055 C49.369224,25.6465193 48.7884096,26.1222099 47.835874,26.1222099 C47.3015248,26.1222099 46.6742452,25.9636464 45.9540354,25.6465193 C45.2105929,25.3293923 44.6762437,25.1708287 44.3509876,25.1708287 C43.4449172,25.1708287 42.8408702,25.8730387 42.8408702,26.779116 C42.8408702,27.6851934 43.3519868,28.3647514 44.3742202,28.8177901 C45.3964535,29.2934807 46.5116172,29.52 47.7429437,29.52 Z M68.4896341,29.4746961 C69.5118674,29.4746961 70.301775,28.6592265 70.301775,27.7304972 C70.301775,27.5039779 70.2553099,27.2774586 70.1623796,27.0509392 L64.93505,14.818895 C64.4471659,13.7089503 63.7037234,13.1653039 62.6814901,13.1653039 C61.6127916,13.1653039 60.8461166,13.7316022 60.3814651,14.841547 L55.1309029,27.2548066 C55.0612052,27.4133702 55.01474,27.6398895 55.01474,27.8890608 C55.01474,28.7271823 55.7117173,29.4746961 56.6410203,29.4746961 C57.5006256,29.4746961 58.08144,29.0896133 58.3834635,28.3194475 L59.3592317,25.9183425 L65.7946553,25.9183425 L66.7471909,28.3194475 C67.0492144,29.0896133 67.6300288,29.4746961 68.4896341,29.4746961 Z M64.4007007,22.5205525 L60.7531863,22.5205525 L62.5885598,18.0354696 L64.4007007,22.5205525 Z M83.5675759,29.4746961 C84.6130419,29.4746961 85.3100191,28.6592265 85.3100191,27.6851934 C85.3100191,27.2548066 85.1938563,26.8923757 84.9382979,26.5979006 L80.4079456,20.7083978 L84.3807161,15.9061878 C84.6827396,15.521105 84.8453676,15.1133702 84.8453676,14.6376796 C84.8453676,13.799558 84.2645532,13.1653039 83.2190873,13.1653039 C82.5453426,13.1653039 81.9412956,13.5050829 81.4069464,14.1846409 L76.7371986,20.300663 L76.7371986,14.8641989 C76.7371986,13.9354696 75.9240584,13.1653039 74.8785925,13.1653039 C73.8331266,13.1653039 73.0199864,13.9354696 73.0199864,14.8641989 L73.0199864,27.7758011 C73.0199864,28.7045304 73.8331266,29.4746961 74.8785925,29.4746961 C75.9240584,29.4746961 76.7371986,28.7045304 76.7371986,27.7758011 L76.7371986,21.7050829 L81.4534115,28.1155801 C82.1968539,29.1122652 82.7544358,29.4746961 83.5675759,29.4746961 Z M99.6445185,29.4746961 C100.689984,29.4746961 101.503125,28.7045304 101.503125,27.7758011 L101.503125,14.8641989 C101.503125,13.9354696 100.689984,13.1653039 99.6445185,13.1653039 C98.5990526,13.1653039 97.7859125,13.9354696 97.7859125,14.8641989 L97.7859125,19.4625414 L91.8616056,19.4625414 L91.8616056,14.8641989 C91.8616056,13.9354696 91.0484654,13.1653039 90.0029995,13.1653039 C88.9575336,13.1653039 88.1443934,13.9354696 88.1443934,14.8641989 L88.1443934,27.7758011 C88.1443934,28.7045304 88.9575336,29.4746961 90.0029995,29.4746961 C91.0484654,29.4746961 91.8616056,28.7045304 91.8616056,27.7758011 L91.8616056,22.8603315 L97.7859125,22.8603315 L97.7859125,27.7758011 C97.7859125,28.7045304 98.5990526,29.4746961 99.6445185,29.4746961 Z M106.893082,29.3840884 C108.170874,29.3840884 109.076944,28.3194475 109.076944,27.0735912 C109.076944,25.9862983 108.124409,24.9443094 106.893082,24.9443094 C105.475895,24.9443094 104.52336,25.9862983 104.52336,27.0735912 C104.52336,28.3420994 105.475895,29.3840884 106.893082,29.3840884 Z M119.461906,29.52 C120.902326,29.52 122.133652,29.2481768 123.179118,28.7271823 C123.945793,28.3420994 124.317514,27.821105 124.317514,27.1641989 C124.317514,26.9150276 124.247817,26.6432044 124.108421,26.3713812 C123.82963,25.8503867 123.388211,25.5785635 122.760932,25.5785635 C122.412443,25.5785635 122.040722,25.6465193 121.669001,25.8050829 C121.088186,26.0089503 120.484139,26.1222099 119.810395,26.1222099 C118.346742,26.1222099 117.161881,25.6691713 116.25581,24.7630939 C115.34974,23.8796685 114.885088,22.7244199 114.885088,21.32 C114.885088,19.8023204 115.326507,18.6244199 116.186113,17.7862983 C117.045718,16.9481768 118.114416,16.5177901 119.438673,16.5177901 C120.158883,16.5177901 120.786163,16.6083978 121.366977,16.8122652 C121.715466,16.9255249 122.017489,16.9934807 122.273048,16.9934807 C122.900327,16.9934807 123.364979,16.7216575 123.690235,16.178011 C123.852863,15.8835359 123.92256,15.6117127 123.92256,15.3172376 C123.92256,14.7056354 123.504374,14.1846409 122.691234,13.7542541 C121.854861,13.3238674 120.76293,13.12 119.438673,13.12 C116.743694,13.12 114.652763,13.8901657 113.165878,15.4304972 C111.678993,16.9708287 110.93555,18.941547 110.93555,21.32 C110.93555,23.7890608 111.725458,25.759779 113.305273,27.2548066 C114.885088,28.7724862 116.929555,29.52 119.461906,29.52 Z M134.37722,29.52 C136.863105,29.52 138.930805,28.7498343 140.580317,27.2095028 C142.206598,25.6691713 143.019738,23.698453 143.019738,21.32 C143.019738,18.8509392 142.206598,16.8575691 140.60355,15.3625414 C138.97727,13.8675138 136.90957,13.12 134.37722,13.12 C131.821636,13.12 129.753937,13.8901657 128.150889,15.4531492 C126.547842,17.0161326 125.734701,18.9868508 125.734701,21.32 C125.734701,23.7890608 126.547842,25.7824309 128.174122,27.2774586 C129.77717,28.7724862 131.844869,29.52 134.37722,29.52 Z M134.37722,26.1222099 C133.076195,26.1222099 131.961032,25.6691713 131.054961,24.740442 C130.148891,23.8117127 129.684239,22.679116 129.684239,21.32 C129.684239,19.8929282 130.125658,18.7150276 131.008496,17.8316022 C131.891334,16.9481768 133.006498,16.5177901 134.37722,16.5177901 C135.701477,16.5177901 136.81664,16.9708287 137.722711,17.8542541 C138.628781,18.7376796 139.0702,19.8929282 139.0702,21.32 C139.0702,22.7244199 138.652014,23.8796685 137.838874,24.7630939 C137.025733,25.6691713 135.864105,26.1222099 134.37722,26.1222099 Z M161.187612,29.4746961 C162.233078,29.4746961 163.046218,28.7045304 163.046218,27.7758011 L163.046218,15.1360221 C163.046218,13.9581215 162.256311,13.1653039 160.978519,13.1653039 C160.583565,13.1653039 160.211844,13.2559116 159.863356,13.459779 C159.189611,13.8448619 158.980518,14.139337 158.306773,15.1133702 L154.798654,20.0741436 L151.081442,15.0907182 C150.500627,14.3432044 150.035976,13.8222099 149.687487,13.5503867 C149.338999,13.3012155 148.851115,13.1653039 148.223835,13.1653039 C146.899578,13.1653039 146.039973,14.0260773 146.039973,15.2039779 L146.039973,27.7758011 C146.039973,28.7045304 146.853113,29.4746961 147.898579,29.4746961 C148.944045,29.4746961 149.757185,28.7045304 149.757185,27.7758011 L149.757185,19.2133702 L153.218839,23.9023204 C153.567327,24.378011 154.008746,24.6271823 154.543096,24.6271823 C155.054212,24.6271823 155.495631,24.378011 155.84412,23.9023204 L159.329006,19.1454144 L159.329006,27.7758011 C159.329006,28.7045304 160.142146,29.4746961 161.187612,29.4746961 Z"/>
    <path fill="#009CE3" fill-rule="nonzero" d="M202.225581,28 C202.877907,28 203.431395,27.4502104 203.431395,26.802244 L203.431395,22.8751753 C203.826744,22.914446 204.419767,22.9340813 205.230233,22.9340813 C206.811628,22.9340813 208.056977,22.5021038 208.946512,21.6381487 C209.836047,20.7741935 210.290698,19.713885 210.290698,18.4768583 C210.290698,16.1991585 208.986047,14.058906 204.933721,14.058906 L203.688372,14.058906 C203.036047,14.0785414 202.54186,14.0785414 202.205814,14.0785414 C201.513953,14.0981767 201,14.6479663 201,15.2959327 L201,26.802244 C201,27.4894811 201.533721,28 202.225581,28 Z M205.151163,20.6760168 C204.637209,20.6760168 204.063953,20.6367461 203.431395,20.5778401 L203.431395,16.3562412 C204.301163,16.3366059 204.874419,16.3169705 205.17093,16.3169705 C206.87093,16.3169705 207.72093,17.0238429 207.72093,18.457223 C207.72093,19.9298738 206.673256,20.6760168 205.151163,20.6760168 Z M221.953488,28 C222.566279,28 223.080233,27.5091164 223.080233,26.9004208 C223.080233,26.7629734 223.040698,26.6058906 222.981395,26.4291725 L218.07907,14.9817672 C217.782558,14.3338008 217.347674,14 216.754651,14 C216.14186,14 215.687209,14.3338008 215.390698,14.9817672 L210.468605,26.4684432 C210.409302,26.6255259 210.369767,26.7629734 210.369767,26.9004208 C210.369767,27.5091164 210.863953,28 211.496512,28 C212.030233,28 212.366279,27.7840112 212.544186,27.3323983 L213.710465,24.4852735 L219.62093,24.4852735 L220.767442,27.2538569 C220.965116,27.7447405 221.360465,28 221.953488,28 Z M218.69186,22.227209 L214.639535,22.227209 L216.675581,17.2987377 L218.69186,22.227209 Z M234.130233,28 C234.822093,28 235.296512,27.5091164 235.296512,26.9004208 C235.296512,26.6451613 235.217442,26.3899018 235.039535,26.173913 L232.015116,22.227209 C232.706977,21.9915849 233.339535,21.5399719 233.873256,20.8723703 C234.406977,20.2244039 234.683721,19.3604488 234.683721,18.3001403 C234.683721,15.4726508 233.003488,14.058906 229.662791,14.058906 C229.20814,14.058906 228.219767,14.0785414 226.65814,14.0981767 C225.966279,14.0981767 225.452326,14.6479663 225.452326,15.2959327 L225.452326,26.802244 C225.452326,27.4894811 225.986047,28 226.677907,28 C227.330233,28 227.883721,27.4502104 227.883721,26.802244 L227.883721,22.6984572 L229.583721,22.6984572 L233.003488,27.312763 C233.339535,27.7643759 233.715116,28 234.130233,28 Z M229.465116,20.4403927 L227.883721,20.4403927 L227.883721,16.3562412 C228.753488,16.3366059 229.306977,16.3169705 229.544186,16.3169705 C231.263953,16.3169705 232.113953,16.9845722 232.113953,18.3197756 C232.113953,19.654979 230.967442,20.4403927 229.465116,20.4403927 Z M241.325581,28 C241.977907,28 242.531395,27.4502104 242.531395,26.802244 L242.531395,16.3562412 L245.911628,16.3562412 C246.524419,16.3562412 247.018605,15.8653576 247.018605,15.2173913 C247.018605,14.5890603 246.524419,14.0981767 245.911628,14.0981767 L236.719767,14.0981767 C236.106977,14.0981767 235.612791,14.5890603 235.612791,15.2173913 C235.612791,15.8653576 236.106977,16.3562412 236.719767,16.3562412 L240.1,16.3562412 L240.1,26.802244 C240.1,27.4894811 240.633721,28 241.325581,28 Z M259.867442,28 C260.5,28 260.954651,27.5287518 260.954651,26.9004208 L260.954651,15.0995792 C260.954651,14.4908836 260.460465,14 259.827907,14 C259.175581,14 258.681395,14.4908836 258.681395,15.0995792 L258.681395,23.6605891 L251.525581,14.6676017 C251.169767,14.2159888 250.754651,14 250.3,14 C249.647674,14 249.133721,14.4712482 249.133721,15.0995792 L249.133721,26.9004208 C249.133721,27.5091164 249.627907,28 250.280233,28 C250.912791,28 251.406977,27.5091164 251.406977,26.9004208 L251.406977,18.3197756 L258.562791,27.2734923 C258.938372,27.7643759 259.373256,28 259.867442,28 Z M271.886047,27.8429173 C272.498837,27.8429173 272.993023,27.3520337 272.993023,26.7040673 C272.993023,26.0757363 272.498837,25.5848527 271.886047,25.5848527 L267.22093,25.5848527 L267.22093,22.0308555 L271.095349,22.0308555 C271.70814,22.0308555 272.202326,21.5399719 272.202326,20.8920056 C272.202326,20.2636746 271.70814,19.772791 271.095349,19.772791 L267.22093,19.772791 L267.22093,16.3562412 L271.688372,16.3562412 C272.301163,16.3562412 272.795349,15.8653576 272.795349,15.2173913 C272.795349,14.5890603 272.301163,14.0981767 271.688372,14.0981767 L265.896512,14.0981767 C265.283721,14.0981767 264.789535,14.5890603 264.789535,15.197756 L264.789535,26.743338 C264.789535,27.3520337 265.283721,27.8429173 265.896512,27.8429173 L271.886047,27.8429173 Z M284.833721,28 C285.525581,28 286,27.5091164 286,26.9004208 C286,26.6451613 285.92093,26.3899018 285.743023,26.173913 L282.718605,22.227209 C283.410465,21.9915849 284.043023,21.5399719 284.576744,20.8723703 C285.110465,20.2244039 285.387209,19.3604488 285.387209,18.3001403 C285.387209,15.4726508 283.706977,14.058906 280.366279,14.058906 C279.911628,14.058906 278.923256,14.0785414 277.361628,14.0981767 C276.669767,14.0981767 276.155814,14.6479663 276.155814,15.2959327 L276.155814,26.802244 C276.155814,27.4894811 276.689535,28 277.381395,28 C278.033721,28 278.587209,27.4502104 278.587209,26.802244 L278.587209,22.6984572 L280.287209,22.6984572 L283.706977,27.312763 C284.043023,27.7643759 284.418605,28 284.833721,28 Z M280.168605,20.4403927 L278.587209,20.4403927 L278.587209,16.3562412 C279.456977,16.3366059 280.010465,16.3169705 280.247674,16.3169705 C281.967442,16.3169705 282.817442,16.9845722 282.817442,18.3197756 C282.817442,19.654979 281.67093,20.4403927 280.168605,20.4403927 Z"/>
  </g>
</svg>
