<svg xmlns="http://www.w3.org/2000/svg" width="31" height="44" viewBox="0 0 31 44">
  <g fill="none" fill-rule="evenodd" stroke="#FFF" stroke-linecap="round" stroke-linejoin="round" stroke-width="3.5" transform="translate(2 2)">
    <path d="M9,0 L9,3.75 C9,4.44166667 9.504,5 10.125,5 L16.875,5 C17.496,5 18,4.44166667 18,3.75 L18,0"/>
    <line x1="7" x2="7" y1="16" y2="18"/>
    <line x1="20" x2="20" y1="16" y2="18"/>
    <path d="M12 22L12.668 22C13.404 22 14 21.3046667 14 20.446L14 15M19 27.10525C16.2397038 29.49125 11.7602962 29.49125 9 27.10525"/>
    <path d="M4.5,0 L22.5,0 C24.984,0 27,1.99111111 27,4.44444444 L27,35.5555556 C27,38.0088889 24.984,40 22.5,40 L4.5,40 C2.016,40 0,38.0088889 0,35.5555556 L0,4.44444444 C0,1.99111111 2.016,0 4.5,0 Z"/>
  </g>
</svg>
