<?xml version="1.0" encoding="utf-8"?>
<!-- Generator: Adobe Illustrator 21.1.0, SVG Export Plug-In . SVG Version: 6.00 Build 0)  -->
<svg version="1.1" id="Layer_1" xmlns="http://www.w3.org/2000/svg" xmlns:xlink="http://www.w3.org/1999/xlink" x="0px" y="0px"
	 viewBox="0 0 50 50" style="enable-background:new 0 0 50 50;" xml:space="preserve">
<style type="text/css">
	.st0{fill:#EB001B;}
	.st1{fill:#F79E1B;}
</style>
<g>
	<path class="st0" d="M20.5,25.1c0-3.5,1.6-6.8,4.5-9c-2.1-1.6-4.6-2.5-7.1-2.5c-6.4,0-11.6,5-11.6,11.4l0,0
		c0,6.4,5.2,11.5,11.6,11.4l0,0c2.7,0,5.2-1,7.1-2.5C22.2,31.9,20.5,28.6,20.5,25.1"/>
	<path class="st1" d="M32.2,36.5c-2.7,0-5.2-1-7.1-2.5c4.9-3.8,5.9-10.9,2.1-16c-0.6-0.8-1.3-1.4-2.1-2.1c2.1-1.6,4.6-2.5,7.1-2.5
		c6.4,0,11.6,5.1,11.6,11.4l0,0C43.8,31.5,38.6,36.6,32.2,36.5z"/>
</g>
</svg>
