<svg xmlns="http://www.w3.org/2000/svg" width="31" height="34" viewBox="0 0 31 34">
  <g fill="none" fill-rule="evenodd" stroke="#323232" stroke-linecap="round" stroke-linejoin="round" stroke-width="2.5" transform="translate(2 2)">
    <line x1="20" x2="13" y1="7" y2="7"/>
    <line x1="20" x2="13" y1="13" y2="13"/>
    <line x1="20" x2="13" y1="20" y2="20"/>
    <path d="M0.00016875,28.6515 L0.00016875,1.6665 C0.00016875,0.7465 0.75448125,-0.000166666667 1.68766875,-0.000166666667 L25.3126688,-0.000166666667 C26.2441688,-0.000166666667 27.0001688,0.7465 27.0001688,1.6665 L27.0001688,28.6515 C27.0001688,29.2715 26.3386688,29.6748333 25.7784188,29.3965 L22.4996063,27.7781667 L18.0007313,29.9998333 L13.5001688,27.7781667 L8.99960625,29.9998333 L4.50073125,27.7781667 L1.22191875,29.3965 C0.65998125,29.6748333 0.00016875,29.2715 0.00016875,28.6515 Z"/>
    <path d="M6.75016875 6.65C6.74510625 6.65 6.74173125 6.65333333 6.74173125 6.65833333 6.74173125 6.66333333 6.74510625 6.66666667 6.75016875 6.66666667 6.75523125 6.66666667 6.75860625 6.66333333 6.75860625 6.65833333 6.75860625 6.65333333 6.75523125 6.65 6.75016875 6.65M6.75016875 13.3333333C6.74510625 13.3333333 6.74173125 13.3366667 6.74173125 13.3416667 6.74173125 13.3466667 6.74510625 13.35 6.75016875 13.35 6.75523125 13.35 6.75860625 13.3466667 6.75860625 13.3416667 6.75860625 13.3366667 6.75523125 13.3333333 6.75016875 13.3333333M6.75016875 19.9833333C6.74510625 19.9833333 6.74173125 19.9866667 6.74173125 19.9916667 6.74173125 19.9966667 6.74510625 20 6.75016875 20 6.75523125 20 6.75860625 19.9966667 6.75860625 19.9916667 6.75860625 19.9866667 6.75523125 19.9833333 6.75016875 19.9833333"/>
  </g>
</svg>
