<svg xmlns="http://www.w3.org/2000/svg" width="51" height="34" viewBox="0 0 51 34">
  <path fill="none" stroke="#FFF" stroke-linecap="round" stroke-linejoin="round" stroke-width="3.5" d="M44 12.5C44 14.985905 41.986403 17 39.5011125 17 37.015822 17 35 14.985905 35 12.5 35 10.014095 37.015822 8 39.5011125 8 41.986403 8 44 10.014095 44 12.5zM30 6.49895649C30 10.0907048 27.0886178 13 23.4989565 13 19.9092952 13 17 10.0907048 17 6.49895649 17 2.90929523 19.9092952 0 23.4989565 0 27.0886178 0 30 2.90929523 30 6.49895649zM3 12.5C3 14.985905 5.01359703 17 7.49888752 17 9.984178 17 12 14.985905 12 12.5 12 10.014095 9.984178 8 7.49888752 8 5.01359703 8 3 10.014095 3 12.5zM47 30L47 27.560189C47 24.4909647 44.6270827 22 41.6985762 22L40 22M0 30L0 27.560189C0 24.4909647 2.3729173 22 5.30142381 22L7 22M35 30L35 26.5460604C35 22.380635 31.6250585 19 27.461841 19L19.538159 19C15.3749415 19 12 22.380635 12 26.5460604L12 30" transform="translate(2 2)"/>
</svg>
