<svg xmlns="http://www.w3.org/2000/svg" width="34" height="34" viewBox="0 0 34 34">
  <g fill="none" fill-rule="evenodd" stroke="#323232" stroke-linecap="round" stroke-linejoin="round" stroke-width="2.5" transform="translate(2 2)">
    <path d="M25 27L24.4230436 25.4879725C24.1312684 24.7233677 23.6779455 24.0343643 23.0976922 23.4742268L22.9921916 23.3745704C22.0789519 22.4896907 20.8788825 22 19.6310082 22L11.3673434 22C10.1211175 22 8.92104807 22.4896907 8.00615999 23.3745704L7.90065938 23.4742268C7.32040604 24.0343643 6.86873156 24.7233677 6.575308 25.4879725L6 27M21 12C21 15.3137143 18.3137143 18 15 18 11.6862857 18 9 15.3137143 9 12 9 8.68457143 11.6862857 6 15 6 18.3137143 6 21 8.68457143 21 12z"/>
    <path d="M30,15 C30,23.285 23.285,30 15,30 C6.715,30 0,23.285 0,15 C0,6.715 6.715,0 15,0 C23.285,0 30,6.715 30,15 Z"/>
  </g>
</svg>
