<svg xmlns="http://www.w3.org/2000/svg" width="55" height="45" viewBox="0 0 55 45">
  <g fill="#FFF">
    <path d="M22 8C24.2101249 8 26 6.21642925 26 3.9937104 26 1.79609643 24.2101249 0 22 0 19.7898751 0 18 1.79614996 18 3.9937104 18 6.2142881 19.7898751 8 22 8L22 8zM27.6258924 42.0335672L47.0123513 42.0335672C47.0123513 42.0335672 48.265165 42.1168355 50.7558475 40.1621202L55 37 55 40.5763571 50.6705957 43.7405557C50.6705957 43.7405557 49.381565 44.7647701 47.2147629 45L26 44.9979184 27.6258924 42.0335672z"/>
    <polygon points=".161 44 19.396 44 21 41 1.606 41 0 44"/>
    <path d="M25.0697395,13.0264411 C25.0697395,10.8051845 23.2274487,9 20.9461552,9 C18.6713079,9 16.8225709,10.8051845 16.8225709,13.0264411 L16.8225709,22.8719729 C16.8225709,24.1181447 17.448844,25.2823825 18.3678406,26.0200038 L9.14371467,26.0200038 L4.15711096,34.8546754 C4.04734926,35.056417 4,35.2833791 4,35.5187552 C4,36.3257219 4.67580414,36.9898017 5.50223999,36.9898017 L39.5150337,36.9898017 C39.5150337,36.9898017 40.9741888,37.2167637 43.175869,35.5292995 L52,29.1870792 L48.666268,23.4985019 C48.666268,23.4985019 47.9194455,22.1199337 45.0914922,21.7038617 L38.4326231,20.6111212 L34.8578473,14.7794418 L34.8169558,14.7205978 C34.3004334,14.1385058 33.4008304,14.079651 32.8046947,14.5777001 L32.798238,14.5903087 C32.3785629,14.9706751 32.2192922,15.5885265 32.4517355,16.1327986 L35.1096634,20.4555579 L35.1096634,20.4912829 L31.7780801,26.0179289 L25.0696249,23.5234872 L25.0696249,21.0773559 L30.366142,21.0773559 C30.622249,21.0899645 30.8891216,21.0542395 31.1431019,20.947063 C32.1460094,20.5793068 32.6453419,19.4739184 32.2622062,18.5009317 C31.9695102,17.7401773 31.2399051,17.2883836 30.4672978,17.277893 L25.0610299,17.2673858 L25.0696387,13.0266143"/>
  </g>
</svg>
