<svg xmlns="http://www.w3.org/2000/svg" xmlns:xlink="http://www.w3.org/1999/xlink" width="68" height="68" viewBox="0 0 68 68">
  <defs>
    <linearGradient id="stars_01-c" x1="18.964%" x2="82.614%" y1="18.78%" y2="86.984%">
      <stop offset="0%" stop-color="#FF8200"/>
      <stop offset="100%" stop-color="#FF5270"/>
    </linearGradient>
    <path id="stars_01-b" d="M30.998367,52 C30.7502188,52 30.5138924,51.9218276 30.3153787,51.770367 L26.4112312,48.8389023 L22.5070837,51.770367 C22.3062045,51.9218276 22.069872,52 21.8240954,52 C21.5759472,52 21.3396208,51.9218276 21.141107,51.770367 C20.7322578,51.4625617 20.5621006,50.9226656 20.7180766,50.4268025 L22.209289,45.6827389 L22.0627632,45.5728098 C21.5428414,45.1819478 21.4270256,44.4295542 21.8051648,43.8921033 C22.0249505,43.581859 22.3770806,43.3961964 22.7481231,43.3961964 C22.9939058,43.3961964 23.2302382,43.4743688 23.4311115,43.6258294 L24.2629912,44.2487633 C24.6718404,44.5565687 24.8419976,45.0964647 24.6860216,45.5923278 L24.040846,47.6468234 L25.7306205,46.3765533 C25.9314998,46.2275379 26.1678323,46.1493656 26.4136089,46.1493656 C26.6617571,46.1493656 26.8980835,46.2275379 27.0965972,46.3765533 L28.7863717,47.6468234 L28.1411961,45.5923278 C27.9852201,45.0939757 28.1530124,44.5540734 28.5642266,44.2487633 L30.2540011,42.9784932 L28.1648638,42.9784932 C27.6591173,42.9784932 27.214827,42.6438153 27.0588571,42.1479272 L26.4136815,40.0934316 L26.177355,40.8482643 C26.0213791,41.3466164 25.5747172,41.6788303 25.0713483,41.6788303 C25.0122655,41.6788303 24.9531851,41.6739442 24.8941005,41.6666154 C24.8893742,41.6666154 24.8846473,41.6641727 24.8799204,41.6641727 C24.8421077,41.6568445 24.804295,41.6495156 24.7664823,41.6373014 C24.7475759,41.6324153 24.7286695,41.6275292 24.7097632,41.620201 C24.6908568,41.6153149 24.6743142,41.6079861 24.6530441,41.6006579 C24.2063822,41.42477 23.9038684,40.9728398 23.9038684,40.4769141 C23.9038684,40.3523261 23.9227748,40.2277381 23.9629512,40.1055953 L25.3076923,35.830566 C25.4636682,35.3322139 25.9079706,35 26.413699,35 C26.9194455,35 27.3637358,35.3322327 27.5197057,35.830566 L29.0109181,40.5746296 L33.8367883,40.5746296 C34.3425348,40.5746296 34.7868251,40.9093075 34.942795,41.4051956 C35.0987709,41.9011025 34.9286155,42.4434501 34.5197645,42.7487602 L30.615617,45.6802249 L32.1068294,50.4242885 C32.2628054,50.9201954 32.09265,51.4625429 31.683799,51.767853 C31.4829197,51.9193136 31.2465872,52 30.9984511,52 L30.998367,52 Z M20.162756,42.9782806 C19.5222994,42.9782806 19,42.4384033 19,41.7763644 C19,41.1143256 19.5222873,40.5744483 20.162756,40.5744483 C20.8055722,40.5744483 21.3255121,41.1143256 21.3255121,41.7763644 C21.3255121,42.4408298 20.8032247,42.9782806 20.162756,42.9782806 Z"/>
    <filter id="stars_01-a" width="300%" height="288.2%" x="-100%" y="-47.1%" filterUnits="objectBoundingBox">
      <feOffset dy="8" in="SourceAlpha" result="shadowOffsetOuter1"/>
      <feGaussianBlur in="shadowOffsetOuter1" result="shadowBlurOuter1" stdDeviation="4"/>
      <feColorMatrix in="shadowBlurOuter1" values="0 0 0 0 0   0 0 0 0 0   0 0 0 0 0  0 0 0 0.12 0"/>
    </filter>
    <linearGradient id="stars_01-f" x1="14.963%" x2="86.818%" y1="20.827%" y2="84.56%">
      <stop offset="0%" stop-color="#FF8200"/>
      <stop offset="100%" stop-color="#FF5270"/>
    </linearGradient>
    <path id="stars_01-e" d="M28.4422661,28.9994727 C28.1967528,28.9994727 27.9629357,28.9237065 27.7665299,28.7769079 C27.3620219,28.478577 27.1936714,27.9552993 27.3479912,27.4746991 L30.3572293,18.091813 L22.475136,12.2933349 C22.0706281,11.995004 21.9022776,11.4717262 22.0565974,10.9911261 C22.2109171,10.5105259 22.6505018,10.1861254 23.1508603,10.1861254 L30.609758,10.1861254 C31.2434141,10.1861254 31.7601677,10.7093849 31.7601677,11.3510458 C31.7601677,11.9927068 31.2434261,12.5159663 30.609758,12.5159663 L26.6955875,12.5159663 L32.389095,16.704443 C32.793603,17.0027739 32.9619535,17.5260517 32.8076337,18.0066518 L30.6331145,24.7831807 L36.3242876,20.594704 C36.5206994,20.4502754 36.7568569,20.3721392 37.0000238,20.3721392 C37.2455371,20.3721392 37.4793542,20.4479054 37.6757601,20.594704 L38.5596224,21.2458084 C38.8565716,21.4636392 39.0342779,21.8164248 39.0342779,22.1881581 C39.0342779,22.4367682 38.9594555,22.6735345 38.8144855,22.8747817 C38.5970336,23.1754765 38.2486424,23.3554242 37.8815397,23.3554242 C37.6383668,23.3554242 37.4045438,23.279658 37.2058034,23.1328595 L36.9977013,22.9789571 L29.1156081,28.7774353 C28.9215367,28.9218638 28.6877196,29 28.4422063,29 L28.4422661,28.9994727 Z M44.9337266,27.0484627 C44.4333502,27.0484627 43.9937774,26.7264564 43.8394636,26.243462 L43.6851439,25.7628194 C43.6617616,25.9569688 43.5892754,26.1416504 43.4747073,26.3002867 C43.2572554,26.6009815 42.9088642,26.7809293 42.5417615,26.7809293 C42.2985886,26.7809293 42.0647656,26.7051631 41.8660252,26.5583645 C41.6181775,26.3760529 41.4545019,26.1037673 41.4054005,25.7983386 C41.3562978,25.4929039 41.4311202,25.1827534 41.6111621,24.9317552 C41.8262796,24.6310603 42.1746707,24.4511126 42.5417735,24.4511126 C42.7872868,24.4511126 43.0187694,24.5268788 43.2175097,24.6736773 C43.2759646,24.7162955 43.3297434,24.7636512 43.3788448,24.8181059 L41.1949878,18.008846 C41.0406681,17.5282034 41.2090173,17.0025497 41.6135265,16.7066372 L47.3046995,12.5181605 L40.2689975,12.5181605 C39.7686211,12.5181605 39.3290483,12.1937842 39.1747345,11.7131598 L36.8061559,4.33050136 C36.6284497,4.41337139 36.4343843,4.44888453 36.235638,4.43468291 C36.1467848,4.42757968 36.0555972,4.40863813 35.9690846,4.3802258 C35.4944291,4.22395953 35.1741113,3.77646618 35.1741113,3.2721603 C35.1741113,3.14904325 35.1928169,3.02829012 35.2302281,2.91227085 L35.9082988,0.805000711 C36.0626186,0.324358129 36.5022033,0 37.0025618,0 C37.5029203,0 37.942511,0.324376313 38.0968248,0.805000711 L41.1060629,10.1878868 L50.8491394,10.1878868 C51.3495159,10.1878868 51.7890886,10.5122631 51.9434024,10.9928875 C52.0977221,11.4735301 51.9293735,11.9991839 51.5248637,12.2950963 L43.6427705,18.0935745 L46.0277501,25.523511 C46.224156,26.1343684 45.892136,26.794989 45.2888637,26.9914963 C45.1719552,27.0293794 45.0527062,27.0484627 44.9334572,27.0484627 L44.9337266,27.0484627 Z M34.5453815,9.9774289 C34.4261325,9.9774289 34.3068835,9.95848735 34.189975,9.92060426 C33.5867267,9.72172101 33.2546947,9.0634764 33.4510886,8.452619 C33.6054083,7.96960645 34.0473275,7.64761828 34.5453515,7.64761828 C34.666935,7.64761828 34.786184,7.66655983 34.900758,7.70444293 C35.5040063,7.90332618 35.8360383,8.56157079 35.6396444,9.17242819 C35.4876591,9.65544074 35.0480804,9.9774289 34.5453815,9.9774289 L34.5453815,9.9774289 Z"/>
    <filter id="stars_01-d" width="206.7%" height="210.3%" x="-53.3%" y="-27.6%" filterUnits="objectBoundingBox">
      <feOffset dy="8" in="SourceAlpha" result="shadowOffsetOuter1"/>
      <feGaussianBlur in="shadowOffsetOuter1" result="shadowBlurOuter1" stdDeviation="4"/>
      <feColorMatrix in="shadowBlurOuter1" values="0 0 0 0 0   0 0 0 0 0   0 0 0 0 0  0 0 0 0.12 0"/>
    </filter>
    <linearGradient id="stars_01-i" x1="14.963%" x2="86.818%" y1="18.78%" y2="86.984%">
      <stop offset="0%" stop-color="#FF8200"/>
      <stop offset="100%" stop-color="#FF5270"/>
    </linearGradient>
    <path id="stars_01-h" d="M10.6231678,25.9975817 C10.379205,25.9975817 10.1468645,25.9200724 9.95169904,25.7698966 L7.00327972,23.5390554 L4.05486039,25.7723149 C3.8596949,25.9200662 3.62734851,26 3.38339165,26 C3.13942883,26 2.9070884,25.9224907 2.7119229,25.7723149 C2.30996954,25.4671206 2.14268228,24.9318042 2.29602745,24.4401473 L3.4205547,20.8262924 L0.472135374,18.5930328 C0.0701820124,18.2878385 -0.0971052451,17.7525222 0.0562399206,17.2608653 C0.209585086,16.7691649 0.648713394,16.4373446 1.14359222,16.4373446 L5.37689665,16.4373446 C6.00655101,16.4373446 6.52004111,16.9726423 6.52004111,17.6290654 C6.52004111,18.285476 6.00656291,18.8207861 5.37689665,18.8207861 L4.66593324,18.8207861 L5.43732824,19.4069486 C5.8392816,19.7121429 6.00656886,20.2474592 5.85322369,20.7391161 L5.55814979,21.6861556 L6.32954479,21.0999932 C6.52471623,20.9498174 6.75938233,20.8723081 7.00101354,20.8723081 C7.24497635,20.8723081 7.47731679,20.9498174 7.67248228,21.0999932 L8.44387728,21.6861556 L8.14880338,20.7391161 C7.99545821,20.2449913 8.16274428,19.7096688 8.56469883,19.4069486 L9.33841355,18.8207861 L8.38346353,18.8207861 C7.88624714,18.8207861 7.44945045,18.4889472 7.29611123,17.9972655 L5.91367908,13.5598899 C5.71851358,12.934979 6.04843677,12.25916 6.64789913,12.058132 C6.76174963,12.0193773 6.88023957,12 7.00106112,12 C7.49827751,12 7.9350742,12.3294145 8.08841342,12.8235207 L9.21294067,16.4373756 L12.8560854,16.4373756 C13.3533018,16.4373756 13.7900985,16.7692146 13.9434377,17.2608963 C14.0967829,17.7525966 13.9318201,18.2878633 13.5275422,18.5930638 L10.5791229,20.8263234 L11.7036502,24.4401783 C11.8569953,24.9318786 11.6897093,25.4671454 11.2877547,25.7723459 C11.0995543,25.9200972 10.8672139,25.9976065 10.6232451,25.9976065 L10.6231678,25.9975817 Z"/>
    <filter id="stars_01-g" width="328.6%" height="328.6%" x="-114.3%" y="-57.1%" filterUnits="objectBoundingBox">
      <feOffset dy="8" in="SourceAlpha" result="shadowOffsetOuter1"/>
      <feGaussianBlur in="shadowOffsetOuter1" result="shadowBlurOuter1" stdDeviation="4"/>
      <feColorMatrix in="shadowBlurOuter1" values="0 0 0 0 0   0 0 0 0 0   0 0 0 0 0  0 0 0 0.12 0"/>
    </filter>
    <path id="stars_01-k" d="M7.5,39 C6.56395702,39 5.68481671,38.6350706 5.02606812,37.9739319 C4.36495364,37.3128174 4,36.4336164 4,35.5 C4,34.563957 4.36492937,33.6848167 5.02606812,33.0260681 C5.6871826,32.3649536 6.56401768,32 7.5,32 C8.4336771,32 9.31518329,32.3649294 9.97393188,33.0260681 C10.6350464,33.6871826 10.9976341,34.5640177 11,35.5 C11,36.4336771 10.6350706,37.3151833 9.97393188,37.9739319 C9.3128174,38.6350464 8.43361643,38.9976341 7.5,39 Z M7.5,34.3341017 C6.85781264,34.3364719 6.33410174,34.8578005 6.33410174,35.5 C6.33410174,36.1421995 6.86017246,36.6658983 7.5,36.6658983 C8.14218736,36.6658983 8.66589826,36.1398275 8.66589826,35.5 C8.66589826,34.8578126 8.1421995,34.3341017 7.5,34.3341017 L7.5,34.3341017 Z"/>
    <filter id="stars_01-j" width="557.1%" height="557.1%" x="-228.6%" y="-114.3%" filterUnits="objectBoundingBox">
      <feOffset dy="8" in="SourceAlpha" result="shadowOffsetOuter1"/>
      <feGaussianBlur in="shadowOffsetOuter1" result="shadowBlurOuter1" stdDeviation="4"/>
      <feColorMatrix in="shadowBlurOuter1" values="0 0 0 0 0   0 0 0 0 0   0 0 0 0 0  0 0 0 0.12 0"/>
    </filter>
    <path id="stars_01-m" d="M47.5,44 C46.2978586,44 45.1665692,43.5316072 44.3186871,42.6816471 C43.4685233,41.8316988 43,40.7029772 43,39.5011406 C43,38.2993039 43.4685116,37.1683012 44.3164053,36.3183529 C45.1665692,35.4684045 46.2955769,35 47.5,35 C48.7021414,35 49.8334308,35.4683928 50.6813129,36.3183529 C51.5314767,37.1683012 51.9977182,38.2970228 52,39.5011406 C52,40.7029772 51.5314884,41.83398 50.6813129,42.6816471 C49.8334308,43.5315955 48.7021414,44 47.5,44 Z M47.5,37.2505995 C46.2612918,37.2528848 45.2511116,38.2628049 45.2488299,39.5011991 C45.2511151,40.7395933 46.2612918,41.7495174 47.5,41.7517986 C48.7387082,41.7495139 49.7488884,40.7395933 49.7511701,39.5011991 C49.7488843,38.2628049 48.7387082,37.2528807 47.5,37.2505995 Z"/>
    <filter id="stars_01-l" width="455.6%" height="455.6%" x="-177.8%" y="-88.9%" filterUnits="objectBoundingBox">
      <feOffset dy="8" in="SourceAlpha" result="shadowOffsetOuter1"/>
      <feGaussianBlur in="shadowOffsetOuter1" result="shadowBlurOuter1" stdDeviation="4"/>
      <feColorMatrix in="shadowBlurOuter1" values="0 0 0 0 0   0 0 0 0 0   0 0 0 0 0  0 0 0 0.12 0"/>
    </filter>
    <path id="stars_01-o" d="M15.5,10 C14.563957,10 13.6848167,9.63507063 13.0260681,8.97393188 C12.3649536,8.3128174 12,7.43361643 12,6.5 C12,5.56395702 12.3649294,4.68481671 13.0260681,4.02606812 C13.6871826,3.36495364 14.5640177,3 15.5,3 C16.4336771,3 17.3151833,3.36492937 17.9739319,4.02606812 C18.6350464,4.6871826 19,5.56401768 19,6.5 C19,7.4336771 18.6350706,8.31518329 17.9739319,8.97393188 C17.3128174,9.63504636 16.4336164,10 15.5,10 Z M15.5,5.33410174 C14.8578126,5.33410174 14.3341017,5.8578005 14.3341017,6.5 C14.3341017,7.14218736 14.8578005,7.66589826 15.5,7.66589826 C16.1421874,7.66589826 16.6658983,7.13982754 16.6658983,6.5 C16.6658983,5.85781264 16.1398275,5.33410174 15.5,5.33410174 L15.5,5.33410174 Z"/>
    <filter id="stars_01-n" width="557.1%" height="557.1%" x="-228.6%" y="-114.3%" filterUnits="objectBoundingBox">
      <feOffset dy="8" in="SourceAlpha" result="shadowOffsetOuter1"/>
      <feGaussianBlur in="shadowOffsetOuter1" result="shadowBlurOuter1" stdDeviation="4"/>
      <feColorMatrix in="shadowBlurOuter1" values="0 0 0 0 0   0 0 0 0 0   0 0 0 0 0  0 0 0 0.12 0"/>
    </filter>
    <path id="stars_01-q" d="M39.9004958,49.0050251 C40.4507763,48.9502004 40.9401339,49.3502124 40.9949749,49.9005077 C41.0498002,50.4507822 40.6497838,50.9401346 40.0994826,50.9949749 C39.5492021,51.0497996 39.0598445,50.6497876 39.0050036,50.0994923 C38.9501782,49.5492178 39.3522271,49.0598654 39.9004958,49.0050251 Z"/>
    <filter id="stars_01-p" width="1700%" height="1700%" x="-800%" y="-400%" filterUnits="objectBoundingBox">
      <feOffset dy="8" in="SourceAlpha" result="shadowOffsetOuter1"/>
      <feGaussianBlur in="shadowOffsetOuter1" result="shadowBlurOuter1" stdDeviation="4"/>
      <feColorMatrix in="shadowBlurOuter1" values="0 0 0 0 0   0 0 0 0 0   0 0 0 0 0  0 0 0 0.12 0"/>
    </filter>
    <path id="stars_01-s" d="M15.9005077,27.0050251 C16.4507822,26.9502004 16.9401346,27.3502124 16.9949749,27.9005077 C17.0497996,28.4507822 16.6497876,28.9401346 16.0994923,28.9949749 C15.5492178,29.0497996 15.0598654,28.6497876 15.0050251,28.0994923 C14.9502004,27.5512451 15.3502124,27.0598654 15.9005077,27.0050251 Z"/>
    <filter id="stars_01-r" width="1700%" height="1700%" x="-800%" y="-400%" filterUnits="objectBoundingBox">
      <feOffset dy="8" in="SourceAlpha" result="shadowOffsetOuter1"/>
      <feGaussianBlur in="shadowOffsetOuter1" result="shadowBlurOuter1" stdDeviation="4"/>
      <feColorMatrix in="shadowBlurOuter1" values="0 0 0 0 0   0 0 0 0 0   0 0 0 0 0  0 0 0 0.12 0"/>
    </filter>
    <path id="stars_01-u" d="M22.9005077,32.0050251 C23.4507822,31.9502004 23.9401346,32.3502124 23.9949749,32.9005077 C24.0497996,33.4507822 23.6497876,33.9401346 23.0994923,33.9949749 C22.5492178,34.0497996 22.0598654,33.6497876 22.0050251,33.0994923 C21.9502004,32.5512451 22.3502124,32.0618927 22.9005077,32.0050251 Z"/>
    <filter id="stars_01-t" width="1700%" height="1700%" x="-800%" y="-400%" filterUnits="objectBoundingBox">
      <feOffset dy="8" in="SourceAlpha" result="shadowOffsetOuter1"/>
      <feGaussianBlur in="shadowOffsetOuter1" result="shadowBlurOuter1" stdDeviation="4"/>
      <feColorMatrix in="shadowBlurOuter1" values="0 0 0 0 0   0 0 0 0 0   0 0 0 0 0  0 0 0 0.12 0"/>
    </filter>
    <path id="stars_01-w" d="M3.90050771,44.0050251 C4.45078222,43.9502004 4.9401346,44.3502124 4.99497491,44.9005077 C5.04979964,45.4507822 4.6497876,45.9401346 4.09949229,45.9949749 C3.54921778,46.0497996 3.0598654,45.6497876 3.00502509,45.0994923 C2.95020036,44.5492178 3.3502124,44.0598654 3.90050771,44.0050251 Z"/>
    <filter id="stars_01-v" width="1700%" height="1700%" x="-800%" y="-400%" filterUnits="objectBoundingBox">
      <feOffset dy="8" in="SourceAlpha" result="shadowOffsetOuter1"/>
      <feGaussianBlur in="shadowOffsetOuter1" result="shadowBlurOuter1" stdDeviation="4"/>
      <feColorMatrix in="shadowBlurOuter1" values="0 0 0 0 0   0 0 0 0 0   0 0 0 0 0  0 0 0 0.12 0"/>
    </filter>
    <path id="stars_01-y" d="M27.9005066,6.00502509 C28.4507804,5.95020036 28.9401321,6.3502124 28.9949724,6.90050771 C29.0498126,7.45080301 28.6497855,7.9401346 28.0994909,7.99497491 C27.5492171,8.04979964 27.0598653,7.6497876 27.0050251,7.09949229 C26.9502004,6.55124505 27.350212,6.0598654 27.9005066,6.00502509 Z"/>
    <filter id="stars_01-x" width="1700%" height="1700%" x="-800%" y="-400%" filterUnits="objectBoundingBox">
      <feOffset dy="8" in="SourceAlpha" result="shadowOffsetOuter1"/>
      <feGaussianBlur in="shadowOffsetOuter1" result="shadowBlurOuter1" stdDeviation="4"/>
      <feColorMatrix in="shadowBlurOuter1" values="0 0 0 0 0   0 0 0 0 0   0 0 0 0 0  0 0 0 0.12 0"/>
    </filter>
    <path id="stars_01-A" d="M49.9005066,18.0050251 C50.4507804,17.9502004 50.9401321,18.3502124 50.9949724,18.9005077 C51.0498126,19.450803 50.6497855,19.9401346 50.0994909,19.9949749 C49.5492171,20.0497996 49.0598653,19.6497876 49.0050251,19.0994923 C48.9502004,18.5492178 49.350212,18.0598654 49.9005066,18.0050251 Z"/>
    <filter id="stars_01-z" width="1700%" height="1700%" x="-800%" y="-400%" filterUnits="objectBoundingBox">
      <feOffset dy="8" in="SourceAlpha" result="shadowOffsetOuter1"/>
      <feGaussianBlur in="shadowOffsetOuter1" result="shadowBlurOuter1" stdDeviation="4"/>
      <feColorMatrix in="shadowBlurOuter1" values="0 0 0 0 0   0 0 0 0 0   0 0 0 0 0  0 0 0 0.12 0"/>
    </filter>
    <polygon id="stars_01-C" points="14 47.506 15.5 46 17 47.494 15.5 49"/>
    <filter id="stars_01-B" width="1166.7%" height="1166.7%" x="-533.3%" y="-266.7%" filterUnits="objectBoundingBox">
      <feOffset dy="8" in="SourceAlpha" result="shadowOffsetOuter1"/>
      <feGaussianBlur in="shadowOffsetOuter1" result="shadowBlurOuter1" stdDeviation="4"/>
      <feColorMatrix in="shadowBlurOuter1" values="0 0 0 0 0   0 0 0 0 0   0 0 0 0 0  0 0 0 0.12 0"/>
    </filter>
    <polygon id="stars_01-E" points="35 33.508 36.501 32 38 33.492 36.501 35"/>
    <filter id="stars_01-D" width="1166.7%" height="1166.7%" x="-533.3%" y="-266.7%" filterUnits="objectBoundingBox">
      <feOffset dy="8" in="SourceAlpha" result="shadowOffsetOuter1"/>
      <feGaussianBlur in="shadowOffsetOuter1" result="shadowBlurOuter1" stdDeviation="4"/>
      <feColorMatrix in="shadowBlurOuter1" values="0 0 0 0 0   0 0 0 0 0   0 0 0 0 0  0 0 0 0.12 0"/>
    </filter>
    <polygon id="stars_01-G" points="21 21.508 22.5 20 24 21.492 22.5 23"/>
    <filter id="stars_01-F" width="1166.7%" height="1166.7%" x="-533.3%" y="-266.7%" filterUnits="objectBoundingBox">
      <feOffset dy="8" in="SourceAlpha" result="shadowOffsetOuter1"/>
      <feGaussianBlur in="shadowOffsetOuter1" result="shadowBlurOuter1" stdDeviation="4"/>
      <feColorMatrix in="shadowBlurOuter1" values="0 0 0 0 0   0 0 0 0 0   0 0 0 0 0  0 0 0 0.12 0"/>
    </filter>
    <polygon id="stars_01-I" points="4 7.509 5.501 6 7 7.494 5.501 9"/>
    <filter id="stars_01-H" width="1166.7%" height="1166.7%" x="-533.3%" y="-266.7%" filterUnits="objectBoundingBox">
      <feOffset dy="8" in="SourceAlpha" result="shadowOffsetOuter1"/>
      <feGaussianBlur in="shadowOffsetOuter1" result="shadowBlurOuter1" stdDeviation="4"/>
      <feColorMatrix in="shadowBlurOuter1" values="0 0 0 0 0   0 0 0 0 0   0 0 0 0 0  0 0 0 0.12 0"/>
    </filter>
    <polygon id="stars_01-K" points="43 3.508 44.5 2 46 3.492 44.5 5"/>
    <filter id="stars_01-J" width="1166.7%" height="1166.7%" x="-533.3%" y="-266.7%" filterUnits="objectBoundingBox">
      <feOffset dy="8" in="SourceAlpha" result="shadowOffsetOuter1"/>
      <feGaussianBlur in="shadowOffsetOuter1" result="shadowBlurOuter1" stdDeviation="4"/>
      <feColorMatrix in="shadowBlurOuter1" values="0 0 0 0 0   0 0 0 0 0   0 0 0 0 0  0 0 0 0.12 0"/>
    </filter>
  </defs>
  <g fill="none" fill-rule="evenodd" transform="translate(8)">
    <use fill="#000" filter="url(#stars_01-a)" xlink:href="#stars_01-b"/>
    <use fill="url(#stars_01-c)" xlink:href="#stars_01-b"/>
    <use fill="#000" filter="url(#stars_01-d)" xlink:href="#stars_01-e"/>
    <use fill="url(#stars_01-f)" xlink:href="#stars_01-e"/>
    <use fill="#000" filter="url(#stars_01-g)" xlink:href="#stars_01-h"/>
    <use fill="url(#stars_01-i)" xlink:href="#stars_01-h"/>
    <use fill="#000" filter="url(#stars_01-j)" xlink:href="#stars_01-k"/>
    <use fill="url(#stars_01-i)" xlink:href="#stars_01-k"/>
    <use fill="#000" filter="url(#stars_01-l)" xlink:href="#stars_01-m"/>
    <use fill="url(#stars_01-i)" xlink:href="#stars_01-m"/>
    <use fill="#000" filter="url(#stars_01-n)" xlink:href="#stars_01-o"/>
    <use fill="url(#stars_01-i)" xlink:href="#stars_01-o"/>
    <use fill="#000" filter="url(#stars_01-p)" xlink:href="#stars_01-q"/>
    <use fill="url(#stars_01-i)" xlink:href="#stars_01-q"/>
    <use fill="#000" filter="url(#stars_01-r)" xlink:href="#stars_01-s"/>
    <use fill="url(#stars_01-i)" xlink:href="#stars_01-s"/>
    <use fill="#000" filter="url(#stars_01-t)" xlink:href="#stars_01-u"/>
    <use fill="url(#stars_01-i)" xlink:href="#stars_01-u"/>
    <use fill="#000" filter="url(#stars_01-v)" xlink:href="#stars_01-w"/>
    <use fill="url(#stars_01-i)" xlink:href="#stars_01-w"/>
    <use fill="#000" filter="url(#stars_01-x)" xlink:href="#stars_01-y"/>
    <use fill="url(#stars_01-i)" xlink:href="#stars_01-y"/>
    <use fill="#000" filter="url(#stars_01-z)" xlink:href="#stars_01-A"/>
    <use fill="url(#stars_01-i)" xlink:href="#stars_01-A"/>
    <use fill="#000" filter="url(#stars_01-B)" xlink:href="#stars_01-C"/>
    <use fill="url(#stars_01-i)" xlink:href="#stars_01-C"/>
    <use fill="#000" filter="url(#stars_01-D)" xlink:href="#stars_01-E"/>
    <use fill="url(#stars_01-i)" xlink:href="#stars_01-E"/>
    <use fill="#000" filter="url(#stars_01-F)" xlink:href="#stars_01-G"/>
    <use fill="url(#stars_01-i)" xlink:href="#stars_01-G"/>
    <use fill="#000" filter="url(#stars_01-H)" xlink:href="#stars_01-I"/>
    <use fill="url(#stars_01-i)" xlink:href="#stars_01-I"/>
    <use fill="#000" filter="url(#stars_01-J)" xlink:href="#stars_01-K"/>
    <use fill="url(#stars_01-i)" xlink:href="#stars_01-K"/>
  </g>
</svg>
