<svg xmlns="http://www.w3.org/2000/svg" width="34" height="34" viewBox="0 0 34 34">
  <g fill="none" fill-rule="evenodd" stroke="#323232" stroke-linecap="round" stroke-linejoin="round" stroke-width="2.5" transform="translate(2 2)">
    <line x2="30" y1="8" y2="8"/>
    <line x1="7" x2="7" y1="23" y2="21"/>
    <line x1="12" x2="12" y1="23" y2="15"/>
    <line x1="17" x2="17" y1="23" y2="20"/>
    <line x1="22" x2="22" y1="23" y2="16"/>
    <path d="M13.1101667 4.15816667C13.1051667 4.15816667 13.1018333 4.1615 13.1018333 4.1665 13.1018333 4.1715 13.1051667 4.17483333 13.1101667 4.17483333 13.1151667 4.17483333 13.1185 4.1715 13.1185 4.1665 13.1185 4.1615 13.1151667 4.15816667 13.1101667 4.15816667M8.8785 4.15816667C8.8735 4.15816667 8.87016667 4.1615 8.87016667 4.1665 8.87016667 4.1715 8.8735 4.17483333 8.8785 4.17483333 8.8835 4.17483333 8.88683333 4.1715 8.88683333 4.1665 8.88683333 4.1615 8.8835 4.15816667 8.8785 4.15816667M4.632 4.15C4.627 4.15 4.62366667 4.15333333 4.62366667 4.15833333 4.62366667 4.16333333 4.627 4.16666667 4.632 4.16666667 4.637 4.16666667 4.64033333 4.16333333 4.64033333 4.15833333 4.64033333 4.15333333 4.637 4.15 4.632 4.15"/>
    <path d="M26.6665,29.9996667 L3.33316667,29.9996667 C1.49316667,29.9996667 -0.000166666667,28.508 -0.000166666667,26.6663333 L-0.000166666667,3.333 C-0.000166666667,1.49133333 1.49316667,-0.000333333333 3.33316667,-0.000333333333 L26.6665,-0.000333333333 C28.5065,-0.000333333333 29.9998333,1.49133333 29.9998333,3.333 L29.9998333,26.6663333 C29.9998333,28.508 28.5065,29.9996667 26.6665,29.9996667 Z"/>
  </g>
</svg>
