<svg xmlns="http://www.w3.org/2000/svg" width="65" height="49" viewBox="0 0 65 49">
  <g fill="#FFF">
    <path d="M64.8480879 6.81335173C64.287969 3.92551554 56.1637326-3.28480874 30.1152709 1.72492366 4.07207134 6.73465605-.516436023 16.998064.0433145167 19.8860345.6034334 22.7738707 6.59002791 32.1664559 36.2843665 25.8715397 65.9761398 19.5791751 65.4052074 9.70132222 64.8480879 6.81335173zM34.6248475 20.1533447C9.50447992 25.3991641 4.95872672 20.1376069 4.63511066 18.4537328 4.30880438 16.7698331 8.64591073 10.4539001 30.6552888 6.15786771 52.6644695 1.86156676 59.1006141 5.7198443 59.4268612 7.4011521 59.7531674 9.08505175 59.7454651 14.9108154 34.6248475 20.1536133L34.6248475 20.1533447zM12 32.5336586C12 32.5336586 16.8563607 36.8003485 28.3111075 36.8003485 39.768393 36.8003485 43.7499982 32 43.7499982 32 43.7499982 32 47.111353 40 29.1833245 40 15.1126428 40 12.0006509 32.5339374 12.0006509 32.5339374L12 32.5336586zM16.0003289 39C16.0003289 39 20.65649 43.3082933 28.709535 43.3082933 34.2471177 43.3082933 35 42.3652845 35 42.3652845 35 42.3652845 33.9927362 46 26.9468892 46 19.9009106 46 16 40.7486979 16 39.0000704L16.0003289 39zM18.0289286 44C18.0289286 44 20.5737318 48.2319455 27 47.5903658 27 47.5903658 24.0269225 50.2772239 20.5733515 48.2319656 17.5433652 46.4354754 18.0285483 44 18.0285483 44L18.0289286 44z"/>
    <path d="M51.8455339 22.3565922C49.2829858 27.4433954 31.0338778 30.6499083 21.471299 30.5705684 12.326361 30.4937267 6 27.8042937 6 27.8042937 6 27.8042937 9.12274437 33.8516345 26.2691878 33.9975937 43.4156977 34.1435923 57.9507909 27.6172876 58 22.2257797 58.0051121 21.4138242 57.7405629 20.6761597 57.2736685 20 55.7096736 20.7939893 53.9097017 21.5829297 51.8451355 22.356461L51.8455339 22.3565922zM36.4524798 14.0015798C26.1194585 13.9080338 15 18 15 18 23.2180716 15.343327 35.3281512 15.3379901 43.4691599 16.8159646 45.21098 16.2707267 46.7161445 15.7281983 48 15.196289 44.4725589 14.4238778 40.4050186 14.0390064 36.4530726 14.0015798L36.4524798 14.0015798z"/>
  </g>
</svg>
