<?xml version="1.0" encoding="utf-8"?>
<!-- Generator: Adobe Illustrator 21.1.0, SVG Export Plug-In . SVG Version: 6.00 Build 0)  -->
<svg version="1.1" id="Layer_1" xmlns="http://www.w3.org/2000/svg" xmlns:xlink="http://www.w3.org/1999/xlink" x="0px" y="0px"
	 viewBox="0 0 50 50" style="enable-background:new 0 0 50 50;" xml:space="preserve">
<style type="text/css">
	.st0{fill:url(#SVGID_1_);}
</style>
<linearGradient id="SVGID_1_" gradientUnits="userSpaceOnUse" x1="866.1186" y1="-2443.1101" x2="825.8814" y2="-2443.1101" gradientTransform="matrix(1 0 0 -1 -821 -2418.1101)">
	<stop  offset="0" style="stop-color:#2F2482"/>
	<stop  offset="1" style="stop-color:#232456"/>
</linearGradient>
<path class="st0" d="M26.1,21c-1,2.1,0,3.8,1.9,4.8c0.7,0.4,2,0.9,2.2,1.6c0.3,1.2-1.2,1.5-2.2,1.5c-1.9-0.1-2-0.5-3-0.8
	c-0.1,0.2-0.6,2.4-0.6,2.8c2.4,1,6.7,1.1,8.5-1.3c0.6-0.9,0.9-2,0.7-3c-0.4-2.1-2.7-2.6-4-3.5c-1.3-1,0-2.3,2.6-1.8
	c0.6,0.1,1,0.3,1.5,0.5l0.6-2.7c-1.2-0.3-1.8-0.5-3.1-0.5h0C29.1,18.5,26.9,19.2,26.1,21z M38.2,19.9c-0.3,0.7-4.7,11.2-4.8,11.4
	h3.4l0.7-1.9h4.1c0.1,0.3,0.2,0.8,0.2,1.1c0.2,0.9,0.1,0.8,0.5,0.8h1.1c0.5,0,1,0,1.5,0v-0.1l-2.6-12.5c-0.3,0-0.7,0-1,0
	c-0.6,0-1.1,0-1.6,0C38.9,18.7,38.5,19.2,38.2,19.9L38.2,19.9z M38.5,26.8c0.1-0.3,1.6-4.4,1.7-4.6l1,4.6L38.5,26.8z M4.9,18.9v0.2
	c0.9,0.2,2.8,0.8,3.4,1.2c0.5,0.3,0.5,0.9,0.7,1.6l1.9,7.5c0.1,0.6,0.3,1.3,0.5,1.9l3.4,0c0.3-0.6,2.4-5.6,2.6-6.3l2-4.7
	c0.1-0.3,0.6-1.3,0.6-1.6l-3.4,0l-3.4,8.5c-0.2-0.3-1.2-6.2-1.4-7.1c-0.3-1.5-1.3-1.4-2.8-1.4l-1.4,0l-1.4,0c-0.5,0-1,0-1.5,0
	L4.9,18.9z M18.9,31.3h3.3l2.7-12.6l-3.2,0L18.9,31.3z"/>
</svg>
